<svg width="179" height="80px" viewBox="0 0 179 78" fill="none" xmlns="http://www.w3.org/2000/svg">
<path d="M12.2013 75H11.2013L9.97725 69.4H10.9533L11.7853 73.504L12.9853 69.4H13.8973L15.0973 73.504L15.9293 69.4H16.8733L15.6493 75H14.6493L13.4253 70.752L12.2013 75ZM23.2533 74.488C23.008 74.6907 22.7573 74.84 22.5013 74.936C22.2506 75.032 21.9706 75.08 21.6613 75.08C21.3786 75.08 21.112 75.0267 20.8613 74.92C20.6106 74.8133 20.3946 74.6667 20.2133 74.48C20.032 74.2933 19.888 74.072 19.7813 73.816C19.6746 73.56 19.6213 73.288 19.6213 73C19.6213 72.7067 19.6693 72.4347 19.7653 72.184C19.8666 71.928 20.0026 71.7093 20.1733 71.528C20.3493 71.3413 20.5573 71.1947 20.7973 71.088C21.0373 70.9813 21.296 70.928 21.5733 70.928C21.8453 70.928 22.096 70.9813 22.3253 71.088C22.56 71.1893 22.76 71.3307 22.9253 71.512C23.096 71.6933 23.2293 71.912 23.3253 72.168C23.4213 72.4187 23.4693 72.6933 23.4693 72.992V73.216H20.5093C20.552 73.5307 20.6853 73.792 20.9093 74C21.1386 74.208 21.4053 74.312 21.7093 74.312C21.896 74.312 22.072 74.28 22.2373 74.216C22.408 74.1467 22.5493 74.0533 22.6613 73.936L23.2533 74.488ZM21.5653 71.664C21.2986 71.664 21.072 71.7547 20.8853 71.936C20.6986 72.1173 20.5786 72.36 20.5253 72.664H22.6133C22.56 72.3707 22.4373 72.1307 22.2453 71.944C22.0586 71.7573 21.832 71.664 21.5653 71.664ZM30.7433 73C30.7433 73.2827 30.6953 73.5493 30.5993 73.8C30.5033 74.0507 30.3699 74.2667 30.1993 74.448C30.0286 74.6293 29.8286 74.7733 29.5993 74.88C29.3699 74.9867 29.1246 75.04 28.8633 75.04C28.6286 75.04 28.4073 74.992 28.1993 74.896C27.9966 74.8 27.8233 74.6613 27.6793 74.48V75H26.7913V69.28L27.6953 69.128V71.528C27.8339 71.352 28.0099 71.2133 28.2233 71.112C28.4419 71.0107 28.6766 70.96 28.9273 70.96C29.1779 70.96 29.4153 71.0133 29.6393 71.12C29.8633 71.2267 30.0553 71.3733 30.2153 71.56C30.3806 71.7413 30.5086 71.9573 30.5993 72.208C30.6953 72.4533 30.7433 72.7173 30.7433 73ZM28.6553 71.72C28.4579 71.72 28.2766 71.7573 28.1113 71.832C27.9513 71.9067 27.8126 72.0187 27.6953 72.168V73.84C27.8126 73.9787 27.9539 74.088 28.1193 74.168C28.2846 74.2427 28.4633 74.28 28.6553 74.28C28.9966 74.28 29.2793 74.16 29.5033 73.92C29.7326 73.6747 29.8473 73.368 29.8473 73C29.8473 72.6373 29.7326 72.3333 29.5033 72.088C29.2739 71.8427 28.9913 71.72 28.6553 71.72ZM38.3908 75V69.4H40.4388C40.8388 69.4 41.2121 69.472 41.5588 69.616C41.9054 69.76 42.2014 69.9573 42.4468 70.208C42.6974 70.4587 42.8921 70.7573 43.0308 71.104C43.1748 71.4453 43.2468 71.8133 43.2468 72.208C43.2468 72.6027 43.1748 72.9707 43.0308 73.312C42.8921 73.6533 42.6974 73.9493 42.4468 74.2C42.2014 74.4453 41.9054 74.64 41.5588 74.784C41.2121 74.928 40.8388 75 40.4388 75H38.3908ZM40.4628 70.232H39.3508V74.168H40.4628C40.7134 74.168 40.9481 74.1173 41.1668 74.016C41.3854 73.9147 41.5748 73.7787 41.7348 73.608C41.8948 73.432 42.0201 73.224 42.1108 72.984C42.2068 72.744 42.2548 72.4853 42.2548 72.208C42.2548 71.9307 42.2068 71.672 42.1108 71.432C42.0201 71.1867 41.8948 70.976 41.7348 70.8C41.5748 70.624 41.3854 70.4853 41.1668 70.384C40.9481 70.2827 40.7134 70.232 40.4628 70.232ZM50.0643 74.488C49.8189 74.6907 49.5683 74.84 49.3123 74.936C49.0616 75.032 48.7816 75.08 48.4723 75.08C48.1896 75.08 47.9229 75.0267 47.6723 74.92C47.4216 74.8133 47.2056 74.6667 47.0243 74.48C46.8429 74.2933 46.6989 74.072 46.5923 73.816C46.4856 73.56 46.4323 73.288 46.4323 73C46.4323 72.7067 46.4803 72.4347 46.5763 72.184C46.6776 71.928 46.8136 71.7093 46.9843 71.528C47.1603 71.3413 47.3683 71.1947 47.6083 71.088C47.8483 70.9813 48.1069 70.928 48.3843 70.928C48.6563 70.928 48.9069 70.9813 49.1363 71.088C49.3709 71.1893 49.5709 71.3307 49.7363 71.512C49.9069 71.6933 50.0403 71.912 50.1363 72.168C50.2323 72.4187 50.2803 72.6933 50.2803 72.992V73.216H47.3203C47.3629 73.5307 47.4963 73.792 47.7203 74C47.9496 74.208 48.2163 74.312 48.5203 74.312C48.7069 74.312 48.8829 74.28 49.0483 74.216C49.2189 74.1467 49.3603 74.0533 49.4723 73.936L50.0643 74.488ZM48.3763 71.664C48.1096 71.664 47.8829 71.7547 47.6963 71.936C47.5096 72.1173 47.3896 72.36 47.3363 72.664H49.4243C49.3709 72.3707 49.2483 72.1307 49.0563 71.944C48.8696 71.7573 48.6429 71.664 48.3763 71.664ZM53.2813 74.536L53.7053 73.928C53.9666 74.0933 54.1959 74.2107 54.3933 74.28C54.5906 74.3493 54.7906 74.384 54.9933 74.384C55.2333 74.384 55.4279 74.336 55.5773 74.24C55.7266 74.1387 55.8013 74.008 55.8013 73.848C55.8013 73.7253 55.7559 73.6293 55.6653 73.56C55.5799 73.4853 55.4413 73.4293 55.2493 73.392L54.5373 73.272C54.1533 73.2027 53.8626 73.0773 53.6653 72.896C53.4733 72.7093 53.3773 72.4667 53.3773 72.168C53.3773 71.7947 53.5186 71.496 53.8013 71.272C54.0893 71.0427 54.4653 70.928 54.9293 70.928C55.2066 70.928 55.4733 70.968 55.7293 71.048C55.9906 71.1227 56.2493 71.2427 56.5053 71.408L56.0813 72C55.8733 71.8667 55.6706 71.7707 55.4733 71.712C55.2759 71.648 55.0759 71.616 54.8733 71.616C54.6653 71.616 54.4973 71.6587 54.3693 71.744C54.2466 71.824 54.1853 71.9387 54.1853 72.088C54.1853 72.216 54.2253 72.312 54.3053 72.376C54.3906 72.44 54.5399 72.4907 54.7533 72.528L55.4573 72.656C55.8573 72.7307 56.1533 72.8613 56.3453 73.048C56.5426 73.2347 56.6413 73.4773 56.6413 73.776C56.6413 73.9573 56.5986 74.128 56.5133 74.288C56.4333 74.448 56.3186 74.5867 56.1693 74.704C56.0253 74.8213 55.8519 74.9147 55.6493 74.984C55.4519 75.048 55.2386 75.08 55.0093 75.08C54.6626 75.08 54.3399 75.0347 54.0413 74.944C53.7479 74.848 53.4946 74.712 53.2813 74.536ZM60.3174 70.176C60.1627 70.176 60.0294 70.1227 59.9174 70.016C59.8107 69.9093 59.7574 69.7787 59.7574 69.624C59.7574 69.4747 59.8134 69.344 59.9254 69.232C60.0374 69.12 60.168 69.064 60.3174 69.064C60.472 69.064 60.6054 69.12 60.7174 69.232C60.8294 69.344 60.8854 69.4747 60.8854 69.624C60.8854 69.7787 60.8294 69.9093 60.7174 70.016C60.6107 70.1227 60.4774 70.176 60.3174 70.176ZM60.7734 70.992V75H59.8694V70.992H60.7734ZM65.917 75.024C65.6663 75.024 65.429 74.9707 65.205 74.864C64.981 74.7573 64.7863 74.6133 64.621 74.432C64.461 74.2507 64.333 74.0373 64.237 73.792C64.1463 73.5413 64.101 73.2747 64.101 72.992C64.101 72.7093 64.149 72.4427 64.245 72.192C64.341 71.9413 64.4717 71.7253 64.637 71.544C64.8077 71.3627 65.0077 71.2213 65.237 71.12C65.4663 71.0133 65.7117 70.96 65.973 70.96C66.2023 70.96 66.4183 71.008 66.621 71.104C66.8237 71.1947 66.9997 71.328 67.149 71.504V70.992H68.045V75.136C68.045 75.648 67.8797 76.0427 67.549 76.32C67.2237 76.5973 66.7597 76.736 66.157 76.736C65.869 76.736 65.5863 76.7013 65.309 76.632C65.037 76.568 64.7837 76.4747 64.549 76.352L64.869 75.68C65.0983 75.7973 65.3143 75.8827 65.517 75.936C65.7197 75.9947 65.9197 76.024 66.117 76.024C66.453 76.024 66.7063 75.9467 66.877 75.792C67.053 75.6427 67.141 75.424 67.141 75.136V74.456C67.0023 74.632 66.8237 74.7707 66.605 74.872C66.3917 74.9733 66.1623 75.024 65.917 75.024ZM64.997 72.992C64.997 73.3547 65.1117 73.6587 65.341 73.904C65.5703 74.1493 65.853 74.272 66.189 74.272C66.381 74.272 66.557 74.2347 66.717 74.16C66.8823 74.0853 67.0237 73.976 67.141 73.832V72.152C67.0237 72.0187 66.8823 71.9147 66.717 71.84C66.5517 71.76 66.3757 71.72 66.189 71.72C65.8477 71.72 65.5623 71.84 65.333 72.08C65.109 72.32 64.997 72.624 64.997 72.992ZM71.56 75V70.992H72.464V71.648C72.6133 71.4133 72.7947 71.2347 73.008 71.112C73.2267 70.9893 73.4693 70.928 73.736 70.928C74.1413 70.928 74.472 71.064 74.728 71.336C74.9893 71.6027 75.12 71.944 75.12 72.36V75H74.216V72.616C74.216 72.328 74.136 72.096 73.976 71.92C73.816 71.744 73.6027 71.656 73.336 71.656C73.1547 71.656 72.9893 71.6987 72.84 71.784C72.696 71.864 72.5707 71.9813 72.464 72.136V75H71.56ZM87.5171 74.496L86.9811 75.136C86.8425 75.0347 86.7011 74.928 86.5571 74.816C86.4185 74.6987 86.2771 74.5813 86.1331 74.464C85.9038 74.6613 85.6425 74.8133 85.3491 74.92C85.0611 75.0267 84.7518 75.08 84.4211 75.08C83.8451 75.08 83.3785 74.9333 83.0211 74.64C82.6638 74.3467 82.4851 73.9627 82.4851 73.488C82.4851 73.152 82.5678 72.8667 82.7331 72.632C82.9038 72.392 83.1891 72.1627 83.5891 71.944L83.6291 71.92C83.4531 71.696 83.3278 71.4907 83.2531 71.304C83.1838 71.112 83.1491 70.9067 83.1491 70.688C83.1491 70.2933 83.2905 69.9653 83.5731 69.704C83.8558 69.4427 84.2105 69.312 84.6371 69.312C85.0478 69.312 85.3865 69.432 85.6531 69.672C85.9198 69.9067 86.0531 70.2053 86.0531 70.568C86.0531 70.8187 85.9838 71.048 85.8451 71.256C85.7118 71.4587 85.5038 71.6427 85.2211 71.808L84.8131 72.056C84.9945 72.2533 85.1918 72.456 85.4051 72.664C85.6185 72.8667 85.8345 73.0693 86.0531 73.272C86.1598 73.0853 86.2531 72.88 86.3331 72.656C86.4185 72.4267 86.4851 72.1813 86.5331 71.92L87.3331 72.048C87.2585 72.4 87.1625 72.7227 87.0451 73.016C86.9331 73.3093 86.8025 73.5707 86.6531 73.8C86.8025 73.928 86.9491 74.0507 87.0931 74.168C87.2425 74.2853 87.3838 74.3947 87.5171 74.496ZM83.9731 70.672C83.9731 70.8053 84.0025 70.9387 84.0611 71.072C84.1198 71.2 84.2238 71.3547 84.3731 71.536L84.7491 71.312C84.9145 71.2107 85.0345 71.104 85.1091 70.992C85.1891 70.8747 85.2291 70.744 85.2291 70.6C85.2291 70.4293 85.1678 70.288 85.0451 70.176C84.9278 70.0587 84.7838 70 84.6131 70C84.4265 70 84.2718 70.064 84.1491 70.192C84.0318 70.3147 83.9731 70.4747 83.9731 70.672ZM83.3331 73.432C83.3331 73.7093 83.4371 73.9333 83.6451 74.104C83.8531 74.2693 84.1305 74.352 84.4771 74.352C84.6798 74.352 84.8718 74.32 85.0531 74.256C85.2345 74.192 85.4025 74.0933 85.5571 73.96C85.2905 73.7147 85.0291 73.4667 84.7731 73.216C84.5225 72.9653 84.2905 72.7173 84.0771 72.472L84.0451 72.488C83.7891 72.6373 83.6051 72.784 83.4931 72.928C83.3865 73.0667 83.3331 73.2347 83.3331 73.432ZM94.9673 75V69.4H97.4713C98.0367 69.4 98.49 69.5627 98.8313 69.888C99.1727 70.2133 99.3433 70.632 99.3433 71.144C99.3433 71.64 99.1727 72.0507 98.8313 72.376C98.49 72.7013 98.0367 72.864 97.4713 72.864H95.9273V75H94.9673ZM97.3273 70.208H95.9273V72.08H97.3193C97.6553 72.08 97.914 71.9947 98.0953 71.824C98.282 71.648 98.3753 71.4187 98.3753 71.136C98.3753 70.864 98.2847 70.6427 98.1033 70.472C97.922 70.296 97.6633 70.208 97.3273 70.208ZM102.685 75V70.992H103.589V71.864C103.696 71.56 103.842 71.328 104.029 71.168C104.221 71.0027 104.442 70.92 104.693 70.92C104.768 70.9253 104.834 70.9333 104.893 70.944C104.952 70.9547 105.016 70.9733 105.085 71V71.792C105.016 71.76 104.936 71.736 104.845 71.72C104.76 71.704 104.674 71.696 104.589 71.696C104.376 71.696 104.181 71.7547 104.005 71.872C103.829 71.9893 103.69 72.152 103.589 72.36V75H102.685ZM107.846 73C107.846 72.7067 107.897 72.4347 107.998 72.184C108.105 71.928 108.246 71.7093 108.422 71.528C108.604 71.3413 108.817 71.1947 109.062 71.088C109.313 70.9813 109.58 70.928 109.862 70.928C110.15 70.928 110.417 70.9813 110.662 71.088C110.908 71.1947 111.121 71.3413 111.302 71.528C111.484 71.7093 111.625 71.928 111.726 72.184C111.828 72.4347 111.878 72.7067 111.878 73C111.878 73.2933 111.825 73.568 111.718 73.824C111.617 74.08 111.476 74.3013 111.294 74.488C111.118 74.6693 110.905 74.8133 110.654 74.92C110.409 75.0267 110.145 75.08 109.862 75.08C109.58 75.08 109.313 75.0267 109.062 74.92C108.817 74.8133 108.604 74.6667 108.422 74.48C108.246 74.2933 108.105 74.0747 107.998 73.824C107.897 73.568 107.846 73.2933 107.846 73ZM109.862 74.296C110.188 74.296 110.454 74.1733 110.662 73.928C110.876 73.6827 110.982 73.376 110.982 73.008C110.982 72.6293 110.876 72.3173 110.662 72.072C110.449 71.8267 110.182 71.704 109.862 71.704C109.537 71.704 109.268 71.8267 109.054 72.072C108.846 72.3173 108.742 72.6293 108.742 73.008C108.742 73.3813 108.846 73.6907 109.054 73.936C109.268 74.176 109.537 74.296 109.862 74.296ZM116.867 75.024C116.616 75.024 116.379 74.9707 116.155 74.864C115.931 74.7573 115.736 74.6133 115.571 74.432C115.411 74.2507 115.283 74.0373 115.187 73.792C115.096 73.5413 115.051 73.2747 115.051 72.992C115.051 72.7093 115.099 72.4427 115.195 72.192C115.291 71.9413 115.422 71.7253 115.587 71.544C115.758 71.3627 115.958 71.2213 116.187 71.12C116.416 71.0133 116.662 70.96 116.923 70.96C117.152 70.96 117.368 71.008 117.571 71.104C117.774 71.1947 117.95 71.328 118.099 71.504V70.992H118.995V75.136C118.995 75.648 118.83 76.0427 118.499 76.32C118.174 76.5973 117.71 76.736 117.107 76.736C116.819 76.736 116.536 76.7013 116.259 76.632C115.987 76.568 115.734 76.4747 115.499 76.352L115.819 75.68C116.048 75.7973 116.264 75.8827 116.467 75.936C116.67 75.9947 116.87 76.024 117.067 76.024C117.403 76.024 117.656 75.9467 117.827 75.792C118.003 75.6427 118.091 75.424 118.091 75.136V74.456C117.952 74.632 117.774 74.7707 117.555 74.872C117.342 74.9733 117.112 75.024 116.867 75.024ZM115.947 72.992C115.947 73.3547 116.062 73.6587 116.291 73.904C116.52 74.1493 116.803 74.272 117.139 74.272C117.331 74.272 117.507 74.2347 117.667 74.16C117.832 74.0853 117.974 73.976 118.091 73.832V72.152C117.974 72.0187 117.832 71.9147 117.667 71.84C117.502 71.76 117.326 71.72 117.139 71.72C116.798 71.72 116.512 71.84 116.283 72.08C116.059 72.32 115.947 72.624 115.947 72.992ZM122.51 75V70.992H123.414V71.864C123.521 71.56 123.667 71.328 123.854 71.168C124.046 71.0027 124.267 70.92 124.518 70.92C124.593 70.9253 124.659 70.9333 124.718 70.944C124.777 70.9547 124.841 70.9733 124.91 71V71.792C124.841 71.76 124.761 71.736 124.67 71.72C124.585 71.704 124.499 71.696 124.414 71.696C124.201 71.696 124.006 71.7547 123.83 71.872C123.654 71.9893 123.515 72.152 123.414 72.36V75H122.51ZM129.134 75.064C128.718 75.064 128.376 74.952 128.11 74.728C127.848 74.4987 127.718 74.2053 127.718 73.848C127.718 73.4907 127.854 73.2053 128.126 72.992C128.403 72.7787 128.776 72.672 129.246 72.672C129.432 72.672 129.614 72.6933 129.79 72.736C129.966 72.7733 130.144 72.8347 130.326 72.92V72.48C130.326 72.2187 130.248 72.0213 130.094 71.888C129.939 71.7493 129.71 71.68 129.406 71.68C129.24 71.68 129.062 71.7067 128.87 71.76C128.678 71.808 128.467 71.8853 128.238 71.992L127.918 71.336C128.216 71.1973 128.502 71.096 128.774 71.032C129.046 70.9627 129.315 70.928 129.582 70.928C130.099 70.928 130.502 71.056 130.79 71.312C131.078 71.5627 131.222 71.92 131.222 72.384V75H130.326V74.592C130.144 74.7573 129.958 74.8773 129.766 74.952C129.574 75.0267 129.363 75.064 129.134 75.064ZM128.566 73.832C128.566 74.0133 128.64 74.16 128.79 74.272C128.939 74.3787 129.136 74.432 129.382 74.432C129.563 74.432 129.731 74.4053 129.886 74.352C130.046 74.2987 130.192 74.216 130.326 74.104V73.448C130.182 73.3787 130.035 73.3307 129.886 73.304C129.736 73.272 129.574 73.256 129.398 73.256C129.142 73.256 128.939 73.3093 128.79 73.416C128.64 73.5173 128.566 73.656 128.566 73.832ZM134.716 75V70.992H135.62V71.632C135.77 71.4027 135.943 71.2293 136.14 71.112C136.343 70.9893 136.567 70.928 136.812 70.928C137.079 70.928 137.316 71 137.524 71.144C137.732 71.2827 137.887 71.4693 137.988 71.704C138.138 71.448 138.324 71.256 138.548 71.128C138.778 70.9947 139.034 70.928 139.316 70.928C139.7 70.928 140.015 71.064 140.26 71.336C140.506 71.608 140.628 71.9573 140.628 72.384V75H139.724V72.576C139.724 72.2987 139.65 72.0773 139.5 71.912C139.356 71.7413 139.162 71.656 138.916 71.656C138.751 71.656 138.602 71.696 138.468 71.776C138.335 71.856 138.215 71.9733 138.108 72.128C138.114 72.1707 138.116 72.2133 138.116 72.256C138.122 72.2987 138.124 72.3413 138.124 72.384V75H137.22V72.576C137.22 72.2987 137.146 72.0773 136.996 71.912C136.852 71.7413 136.658 71.656 136.412 71.656C136.252 71.656 136.106 71.696 135.972 71.776C135.839 71.8507 135.722 71.9627 135.62 72.112V75H134.716ZM144.124 75V70.992H145.028V71.632C145.177 71.4027 145.351 71.2293 145.548 71.112C145.751 70.9893 145.975 70.928 146.22 70.928C146.487 70.928 146.724 71 146.932 71.144C147.14 71.2827 147.295 71.4693 147.396 71.704C147.545 71.448 147.732 71.256 147.956 71.128C148.185 70.9947 148.441 70.928 148.724 70.928C149.108 70.928 149.423 71.064 149.668 71.336C149.913 71.608 150.036 71.9573 150.036 72.384V75H149.132V72.576C149.132 72.2987 149.057 72.0773 148.908 71.912C148.764 71.7413 148.569 71.656 148.324 71.656C148.159 71.656 148.009 71.696 147.876 71.776C147.743 71.856 147.623 71.9733 147.516 72.128C147.521 72.1707 147.524 72.2133 147.524 72.256C147.529 72.2987 147.532 72.3413 147.532 72.384V75H146.628V72.576C146.628 72.2987 146.553 72.0773 146.404 71.912C146.26 71.7413 146.065 71.656 145.82 71.656C145.66 71.656 145.513 71.696 145.38 71.776C145.247 71.8507 145.129 71.9627 145.028 72.112V75H144.124ZM153.98 70.176C153.825 70.176 153.692 70.1227 153.58 70.016C153.473 69.9093 153.42 69.7787 153.42 69.624C153.42 69.4747 153.476 69.344 153.588 69.232C153.7 69.12 153.831 69.064 153.98 69.064C154.135 69.064 154.268 69.12 154.38 69.232C154.492 69.344 154.548 69.4747 154.548 69.624C154.548 69.7787 154.492 69.9093 154.38 70.016C154.273 70.1227 154.14 70.176 153.98 70.176ZM154.436 70.992V75H153.532V70.992H154.436ZM157.948 75V70.992H158.852V71.648C159.001 71.4133 159.182 71.2347 159.396 71.112C159.614 70.9893 159.857 70.928 160.124 70.928C160.529 70.928 160.86 71.064 161.116 71.336C161.377 71.6027 161.508 71.944 161.508 72.36V75H160.604V72.616C160.604 72.328 160.524 72.096 160.364 71.92C160.204 71.744 159.99 71.656 159.724 71.656C159.542 71.656 159.377 71.6987 159.228 71.784C159.084 71.864 158.958 71.9813 158.852 72.136V75H157.948ZM166.636 75.024C166.385 75.024 166.148 74.9707 165.924 74.864C165.7 74.7573 165.505 74.6133 165.34 74.432C165.18 74.2507 165.052 74.0373 164.956 73.792C164.865 73.5413 164.82 73.2747 164.82 72.992C164.82 72.7093 164.868 72.4427 164.964 72.192C165.06 71.9413 165.19 71.7253 165.356 71.544C165.526 71.3627 165.726 71.2213 165.956 71.12C166.185 71.0133 166.43 70.96 166.692 70.96C166.921 70.96 167.137 71.008 167.34 71.104C167.542 71.1947 167.718 71.328 167.868 71.504V70.992H168.764V75.136C168.764 75.648 168.598 76.0427 168.268 76.32C167.942 76.5973 167.478 76.736 166.876 76.736C166.588 76.736 166.305 76.7013 166.028 76.632C165.756 76.568 165.502 76.4747 165.268 76.352L165.588 75.68C165.817 75.7973 166.033 75.8827 166.236 75.936C166.438 75.9947 166.638 76.024 166.836 76.024C167.172 76.024 167.425 75.9467 167.596 75.792C167.772 75.6427 167.86 75.424 167.86 75.136V74.456C167.721 74.632 167.542 74.7707 167.324 74.872C167.11 74.9733 166.881 75.024 166.636 75.024ZM165.716 72.992C165.716 73.3547 165.83 73.6587 166.06 73.904C166.289 74.1493 166.572 74.272 166.908 74.272C167.1 74.272 167.276 74.2347 167.436 74.16C167.601 74.0853 167.742 73.976 167.86 73.832V72.152C167.742 72.0187 167.601 71.9147 167.436 71.84C167.27 71.76 167.094 71.72 166.908 71.72C166.566 71.72 166.281 71.84 166.052 72.08C165.828 72.32 165.716 72.624 165.716 72.992Z" fill="white"/>
<path d="M16.6632 9.72L33.9352 52.084L51.1392 9.72H56.1032L36.1112 58H31.7592L11.6992 9.72H16.6632ZM50.592 47.8C50.592 45.624 51.2267 43.7427 52.496 42.156C53.7654 40.524 55.5107 39.2547 57.732 38.348C59.9987 37.4413 62.6054 36.988 65.552 36.988C67.2747 36.988 69.0654 37.1467 70.924 37.464C72.7827 37.736 74.4374 38.1213 75.888 38.62V35.628C75.888 32.636 75.004 30.256 73.236 28.488C71.468 26.72 69.02 25.836 65.892 25.836C64.0334 25.836 62.1747 26.1987 60.316 26.924C58.4574 27.604 56.5307 28.624 54.536 29.984L52.768 26.72C55.08 25.1333 57.3467 23.9547 59.568 23.184C61.7894 22.368 64.056 21.96 66.368 21.96C70.72 21.96 74.1654 23.2067 76.704 25.7C79.2427 28.1933 80.512 31.6387 80.512 36.036V52.424C80.512 53.648 81.0787 54.2827 82.212 54.328V58C81.2147 58.136 80.512 58.1813 80.104 58.136C78.9707 58.0907 78.1094 57.728 77.52 57.048C76.9307 56.368 76.6134 55.6427 76.568 54.872L76.5 52.288C74.9134 54.328 72.8507 55.9147 70.312 57.048C67.7734 58.136 65.1894 58.68 62.56 58.68C60.248 58.68 58.1854 58.204 56.372 57.252C54.5587 56.2547 53.1307 54.94 52.088 53.308C51.0907 51.6307 50.592 49.7947 50.592 47.8ZM74.324 50.52C75.3667 49.296 75.888 48.1627 75.888 47.12V41.952C72.76 40.728 69.496 40.116 66.096 40.116C62.7867 40.116 60.112 40.7733 58.072 42.088C56.032 43.4027 55.012 45.1933 55.012 47.46C55.012 49.4093 55.76 51.1773 57.256 52.764C58.7974 54.3507 60.928 55.144 63.648 55.144C65.8694 55.144 67.932 54.7133 69.836 53.852C71.7854 52.9907 73.2814 51.88 74.324 50.52ZM85.6067 8.36H90.2307V49.976C90.2307 51.744 90.5254 52.9 91.1147 53.444C91.7494 53.988 92.5427 54.26 93.4947 54.26C94.3107 54.26 95.1267 54.1693 95.9427 53.988C96.8041 53.8067 97.5067 53.6253 98.0507 53.444L98.8667 57.184C98.0054 57.5467 96.9401 57.8413 95.6707 58.068C94.4467 58.2947 93.3814 58.408 92.4747 58.408C90.3894 58.408 88.7121 57.796 87.4427 56.572C86.2187 55.348 85.6067 53.6707 85.6067 51.54V8.36ZM114.13 58.68C110.73 58.68 107.693 57.8413 105.018 56.164C102.343 54.4867 100.235 52.2427 98.6941 49.432C97.1527 46.6213 96.3821 43.5387 96.3821 40.184C96.3821 36.8747 97.1301 33.8373 98.6261 31.072C100.167 28.3067 102.275 26.108 104.95 24.476C107.625 22.7987 110.662 21.96 114.062 21.96C117.553 21.96 120.613 22.7987 123.242 24.476C125.871 26.1533 127.911 28.3747 129.362 31.14C130.858 33.86 131.606 36.852 131.606 40.116C131.606 40.8413 131.583 41.4533 131.538 41.952H101.21C101.437 44.4907 102.162 46.7573 103.386 48.752C104.61 50.7013 106.174 52.2653 108.078 53.444C109.982 54.5773 112.067 55.144 114.334 55.144C116.646 55.144 118.822 54.5547 120.862 53.376C122.902 52.1973 124.353 50.656 125.214 48.752L129.226 49.84C128.501 51.5627 127.367 53.104 125.826 54.464C124.33 55.7787 122.585 56.8213 120.59 57.592C118.595 58.3173 116.442 58.68 114.13 58.68ZM101.074 38.62H127.254C127.073 36.0813 126.37 33.8373 125.146 31.888C123.922 29.8933 122.358 28.352 120.454 27.264C118.55 26.1307 116.442 25.564 114.13 25.564C111.818 25.564 109.71 26.1307 107.806 27.264C105.902 28.352 104.338 29.8933 103.114 31.888C101.935 33.8373 101.255 36.0813 101.074 38.62ZM163.424 58H158.8V38.212C158.8 34.0413 158.166 31.004 156.896 29.1C155.672 27.1507 153.768 26.176 151.184 26.176C149.371 26.176 147.58 26.6293 145.812 27.536C144.044 28.3973 142.48 29.5987 141.12 31.14C139.806 32.636 138.854 34.3587 138.264 36.308V58H133.64V22.572H137.856V30.596C139.262 28.012 141.324 25.9267 144.044 24.34C146.764 22.7533 149.711 21.96 152.884 21.96C155.514 21.96 157.599 22.5947 159.14 23.864C160.682 25.088 161.77 26.856 162.404 29.168C163.084 31.4347 163.424 34.132 163.424 37.26V58Z" fill="white"/>
</svg>
