<svg width="200" height="100px" viewBox="0 0 200 100" fill="none" xmlns="http://www.w3.org/2000/svg">
<path d="M17.3535 68.94H18.2035L19.1435 71.41L20.0935 68.94H20.9435L19.7135 72.03L20.9335 74.96L23.3335 68.9H24.3135L21.3435 76H20.5635L19.1535 72.65L17.7335 76H16.9535L13.9935 68.9H14.9635L17.3735 74.96L18.5835 72.03L17.3535 68.94ZM27.5282 76.1C27.0082 76.1 26.5482 75.9767 26.1482 75.73C25.7482 75.4833 25.4349 75.1533 25.2082 74.74C24.9815 74.3267 24.8682 73.8767 24.8682 73.39C24.8682 72.8967 24.9815 72.4467 25.2082 72.04C25.4349 71.6333 25.7482 71.3067 26.1482 71.06C26.5549 70.8133 27.0182 70.69 27.5382 70.69C28.0649 70.69 28.5215 70.8167 28.9082 71.07C29.3015 71.3167 29.6049 71.6433 29.8182 72.05C30.0382 72.45 30.1482 72.8833 30.1482 73.35C30.1482 73.4967 30.1415 73.61 30.1282 73.69H25.7982C25.8249 74.03 25.9182 74.3333 26.0782 74.6C26.2449 74.86 26.4582 75.0667 26.7182 75.22C26.9782 75.3667 27.2582 75.44 27.5582 75.44C27.8782 75.44 28.1782 75.36 28.4582 75.2C28.7449 75.04 28.9415 74.83 29.0482 74.57L29.8082 74.78C29.6415 75.1667 29.3515 75.4833 28.9382 75.73C28.5249 75.9767 28.0549 76.1 27.5282 76.1ZM25.7682 73.08H29.3282C29.3015 72.74 29.2049 72.44 29.0382 72.18C28.8715 71.92 28.6582 71.7167 28.3982 71.57C28.1382 71.4233 27.8515 71.35 27.5382 71.35C27.2315 71.35 26.9482 71.4233 26.6882 71.57C26.4282 71.7167 26.2149 71.92 26.0482 72.18C25.8882 72.44 25.7949 72.74 25.7682 73.08ZM34.6064 76.1C34.1997 76.1 33.8297 76 33.4964 75.8C33.1631 75.6 32.8997 75.34 32.7064 75.02V76H31.9264V68.7H32.8064V71.82C33.0264 71.48 33.2964 71.2067 33.6164 71C33.9364 70.7933 34.3097 70.69 34.7364 70.69C35.0964 70.69 35.4197 70.7667 35.7064 70.92C35.9931 71.0667 36.2364 71.27 36.4364 71.53C36.6431 71.7833 36.7997 72.0733 36.9064 72.4C37.0197 72.72 37.0764 73.0567 37.0764 73.41C37.0764 73.8967 36.9664 74.3467 36.7464 74.76C36.5331 75.1667 36.2397 75.4933 35.8664 75.74C35.4931 75.98 35.0731 76.1 34.6064 76.1ZM34.3864 75.34C34.7397 75.34 35.0497 75.25 35.3164 75.07C35.5831 74.8833 35.7931 74.6433 35.9464 74.35C36.0997 74.0567 36.1764 73.7433 36.1764 73.41C36.1764 73.07 36.1031 72.75 35.9564 72.45C35.8164 72.15 35.6164 71.91 35.3564 71.73C35.1031 71.5433 34.8064 71.45 34.4664 71.45C34.0931 71.45 33.7597 71.57 33.4664 71.81C33.1797 72.05 32.9597 72.3367 32.8064 72.67V74.18C32.8531 74.4 32.9597 74.6 33.1264 74.78C33.2997 74.9533 33.4997 75.09 33.7264 75.19C33.9597 75.29 34.1797 75.34 34.3864 75.34ZM42.4262 76V68.9H44.8862C45.6462 68.9 46.2795 69.06 46.7862 69.38C47.2995 69.6933 47.6828 70.12 47.9362 70.66C48.1895 71.1933 48.3162 71.7867 48.3162 72.44C48.3162 73.16 48.1762 73.7867 47.8962 74.32C47.6162 74.8533 47.2195 75.2667 46.7062 75.56C46.1928 75.8533 45.5862 76 44.8862 76H42.4262ZM47.4062 72.44C47.4062 71.9067 47.3062 71.4333 47.1062 71.02C46.9128 70.6067 46.6295 70.2833 46.2562 70.05C45.8828 69.8167 45.4262 69.7 44.8862 69.7H43.3262V75.2H44.8862C45.4328 75.2 45.8928 75.08 46.2662 74.84C46.6395 74.5933 46.9228 74.2633 47.1162 73.85C47.3095 73.43 47.4062 72.96 47.4062 72.44ZM52.5544 76.1C52.0344 76.1 51.5744 75.9767 51.1744 75.73C50.7744 75.4833 50.461 75.1533 50.2344 74.74C50.0077 74.3267 49.8944 73.8767 49.8944 73.39C49.8944 72.8967 50.0077 72.4467 50.2344 72.04C50.461 71.6333 50.7744 71.3067 51.1744 71.06C51.581 70.8133 52.0444 70.69 52.5644 70.69C53.091 70.69 53.5477 70.8167 53.9344 71.07C54.3277 71.3167 54.631 71.6433 54.8444 72.05C55.0644 72.45 55.1744 72.8833 55.1744 73.35C55.1744 73.4967 55.1677 73.61 55.1544 73.69H50.8244C50.851 74.03 50.9444 74.3333 51.1044 74.6C51.271 74.86 51.4844 75.0667 51.7444 75.22C52.0044 75.3667 52.2844 75.44 52.5844 75.44C52.9044 75.44 53.2044 75.36 53.4844 75.2C53.771 75.04 53.9677 74.83 54.0744 74.57L54.8344 74.78C54.6677 75.1667 54.3777 75.4833 53.9644 75.73C53.551 75.9767 53.081 76.1 52.5544 76.1ZM50.7944 73.08H54.3544C54.3277 72.74 54.231 72.44 54.0644 72.18C53.8977 71.92 53.6844 71.7167 53.4244 71.57C53.1644 71.4233 52.8777 71.35 52.5644 71.35C52.2577 71.35 51.9744 71.4233 51.7144 71.57C51.4544 71.7167 51.241 71.92 51.0744 72.18C50.9144 72.44 50.821 72.74 50.7944 73.08ZM58.7426 76.1C58.3092 76.1 57.9026 76.03 57.5226 75.89C57.1426 75.7433 56.8159 75.5267 56.5426 75.24L56.8826 74.62C57.1826 74.9 57.4826 75.1 57.7826 75.22C58.0826 75.34 58.3892 75.4 58.7026 75.4C59.0626 75.4 59.3559 75.3333 59.5826 75.2C59.8092 75.06 59.9226 74.8567 59.9226 74.59C59.9226 74.3967 59.8626 74.2533 59.7426 74.16C59.6292 74.0667 59.4659 73.99 59.2526 73.93C59.0392 73.8633 58.7859 73.79 58.4926 73.71C57.9526 73.5567 57.5392 73.3767 57.2526 73.17C56.9726 72.9567 56.8326 72.6467 56.8326 72.24C56.8326 71.7467 57.0192 71.3667 57.3926 71.1C57.7726 70.8267 58.2559 70.69 58.8426 70.69C59.6292 70.69 60.2492 70.9267 60.7026 71.4L60.3026 72.01C59.8959 71.59 59.3926 71.38 58.7926 71.38C58.6126 71.38 58.4359 71.4033 58.2626 71.45C58.0892 71.49 57.9459 71.5667 57.8326 71.68C57.7192 71.7867 57.6626 71.94 57.6626 72.14C57.6626 72.3867 57.7626 72.5633 57.9626 72.67C58.1626 72.7767 58.4559 72.8867 58.8426 73C59.2359 73.1133 59.5759 73.2267 59.8626 73.34C60.1559 73.4533 60.3826 73.6 60.5426 73.78C60.7026 73.96 60.7826 74.21 60.7826 74.53C60.7826 75.0233 60.5959 75.41 60.2226 75.69C59.8492 75.9633 59.3559 76.1 58.7426 76.1ZM62.6354 69.8V68.7H63.5154V69.8H62.6354ZM62.6354 76V70.78H63.5154V76H62.6354ZM67.8201 76.06C67.3467 76.06 66.9267 75.9367 66.5601 75.69C66.2001 75.4367 65.9167 75.1067 65.7101 74.7C65.5101 74.2933 65.4101 73.86 65.4101 73.4C65.4101 72.9067 65.5101 72.4567 65.7101 72.05C65.9167 71.6367 66.2034 71.3067 66.5701 71.06C66.9367 70.8133 67.3567 70.69 67.8301 70.69C68.2634 70.69 68.6401 70.7967 68.9601 71.01C69.2867 71.2233 69.5601 71.4933 69.7801 71.82V70.78H70.5601V75.94C70.5601 76.4333 70.4401 76.85 70.2001 77.19C69.9667 77.53 69.6467 77.7867 69.2401 77.96C68.8401 78.14 68.3934 78.23 67.9001 78.23C67.3134 78.23 66.8334 78.1267 66.4601 77.92C66.0867 77.7133 65.7767 77.4333 65.5301 77.08L66.0401 76.63C66.2467 76.9367 66.5134 77.1667 66.8401 77.32C67.1734 77.4733 67.5267 77.55 67.9001 77.55C68.2201 77.55 68.5134 77.49 68.7801 77.37C69.0534 77.2567 69.2701 77.08 69.4301 76.84C69.5967 76.6 69.6801 76.3 69.6801 75.94V75.02C69.4867 75.34 69.2201 75.5933 68.8801 75.78C68.5467 75.9667 68.1934 76.06 67.8201 76.06ZM68.0901 75.34C68.3367 75.34 68.5734 75.2833 68.8001 75.17C69.0267 75.0567 69.2167 74.91 69.3701 74.73C69.5301 74.55 69.6334 74.3633 69.6801 74.17V72.67C69.5401 72.3167 69.3134 72.0267 69.0001 71.8C68.6867 71.5667 68.3567 71.45 68.0101 71.45C67.6567 71.45 67.3501 71.5467 67.0901 71.74C66.8367 71.9333 66.6401 72.18 66.5001 72.48C66.3667 72.78 66.3001 73.0933 66.3001 73.42C66.3001 73.7667 66.3801 74.0867 66.5401 74.38C66.7001 74.6667 66.9134 74.9 67.1801 75.08C67.4534 75.2533 67.7567 75.34 68.0901 75.34ZM77.3103 76H76.4303V73.08C76.4303 72.5267 76.3436 72.1233 76.1703 71.87C76.0036 71.61 75.747 71.48 75.4003 71.48C75.1603 71.48 74.9203 71.54 74.6803 71.66C74.447 71.78 74.237 71.9433 74.0503 72.15C73.8703 72.35 73.7403 72.5833 73.6603 72.85V76H72.7803V70.78H73.5803V71.9C73.787 71.5333 74.0836 71.24 74.4703 71.02C74.8636 70.8 75.2903 70.69 75.7503 70.69C76.157 70.69 76.4703 70.7867 76.6903 70.98C76.917 71.1667 77.077 71.4267 77.1703 71.76C77.2636 72.0867 77.3103 72.46 77.3103 72.88V76ZM87.6981 76L86.9581 75.22C86.6781 75.5 86.3581 75.7167 85.9981 75.87C85.6381 76.0233 85.2547 76.1 84.8481 76.1C84.4147 76.1 84.0214 76.0133 83.6681 75.84C83.3214 75.6667 83.0481 75.4333 82.8481 75.14C82.6481 74.84 82.5481 74.5 82.5481 74.12C82.5481 73.8067 82.6114 73.5267 82.7381 73.28C82.8714 73.0267 83.0447 72.8 83.2581 72.6C83.4714 72.4 83.7047 72.2167 83.9581 72.05C83.6247 71.6833 83.3914 71.38 83.2581 71.14C83.1247 70.9 83.0581 70.6567 83.0581 70.41C83.0581 70.1033 83.1381 69.83 83.2981 69.59C83.4581 69.35 83.6747 69.16 83.9481 69.02C84.2281 68.88 84.5414 68.81 84.8881 68.81C85.2081 68.81 85.4981 68.87 85.7581 68.99C86.0181 69.1033 86.2247 69.27 86.3781 69.49C86.5381 69.7033 86.6181 69.96 86.6181 70.26C86.6181 70.5333 86.5514 70.7767 86.4181 70.99C86.2914 71.2033 86.1181 71.4033 85.8981 71.59C85.6781 71.77 85.4314 71.95 85.1581 72.13L86.9781 74.03C87.0981 73.79 87.1914 73.5267 87.2581 73.24C87.3314 72.9533 87.3681 72.6533 87.3681 72.34H88.0981C88.0981 72.7667 88.0447 73.17 87.9381 73.55C87.8314 73.9233 87.6814 74.2633 87.4881 74.57L88.8581 76H87.6981ZM83.8681 70.39C83.8681 70.4833 83.8881 70.58 83.9281 70.68C83.9747 70.78 84.0547 70.9033 84.1681 71.05C84.2814 71.19 84.4414 71.3733 84.6481 71.6C84.9947 71.3733 85.2747 71.16 85.4881 70.96C85.7014 70.76 85.8081 70.5333 85.8081 70.28C85.8081 70.0467 85.7214 69.8567 85.5481 69.71C85.3747 69.5567 85.1547 69.48 84.8881 69.48C84.5947 69.48 84.3514 69.57 84.1581 69.75C83.9647 69.9233 83.8681 70.1367 83.8681 70.39ZM83.3981 74.13C83.3981 74.3967 83.4714 74.6267 83.6181 74.82C83.7647 75.0067 83.9547 75.15 84.1881 75.25C84.4281 75.35 84.6781 75.4 84.9381 75.4C85.2314 75.4 85.5081 75.34 85.7681 75.22C86.0347 75.1 86.2714 74.9333 86.4781 74.72L84.4681 72.59C84.1481 72.81 83.8881 73.0433 83.6881 73.29C83.4947 73.5367 83.3981 73.8167 83.3981 74.13ZM93.884 76V68.9H96.844C97.1573 68.9 97.444 68.9667 97.704 69.1C97.964 69.2267 98.1907 69.4 98.384 69.62C98.5773 69.8333 98.7273 70.0767 98.834 70.35C98.9407 70.6167 98.994 70.89 98.994 71.17C98.994 71.5567 98.9073 71.9267 98.734 72.28C98.5607 72.6267 98.3173 72.91 98.004 73.13C97.6907 73.3433 97.324 73.45 96.904 73.45H94.784V76H93.884ZM94.784 72.65H96.854C97.1007 72.65 97.314 72.5833 97.494 72.45C97.6807 72.3167 97.824 72.1367 97.924 71.91C98.0307 71.6833 98.084 71.4367 98.084 71.17C98.084 70.89 98.024 70.64 97.904 70.42C97.784 70.1933 97.6273 70.0167 97.434 69.89C97.2407 69.7633 97.0273 69.7 96.794 69.7H94.784V72.65ZM103.534 71.55C103.094 71.5567 102.704 71.67 102.364 71.89C102.031 72.1033 101.794 72.4 101.654 72.78V76H100.774V70.78H101.594V71.99C101.774 71.63 102.011 71.34 102.304 71.12C102.604 70.8933 102.918 70.7667 103.244 70.74C103.311 70.74 103.368 70.74 103.414 70.74C103.461 70.74 103.501 70.7433 103.534 70.75V71.55ZM107.37 76.1C106.85 76.1 106.39 75.9767 105.99 75.73C105.597 75.4767 105.29 75.1467 105.07 74.74C104.85 74.3267 104.74 73.88 104.74 73.4C104.74 72.9133 104.85 72.4667 105.07 72.06C105.297 71.6467 105.607 71.3167 106 71.07C106.4 70.8167 106.857 70.69 107.37 70.69C107.89 70.69 108.347 70.8167 108.74 71.07C109.14 71.3167 109.45 71.6467 109.67 72.06C109.897 72.4667 110.01 72.9133 110.01 73.4C110.01 73.88 109.897 74.3267 109.67 74.74C109.45 75.1467 109.143 75.4767 108.75 75.73C108.357 75.9767 107.897 76.1 107.37 76.1ZM105.64 73.41C105.64 73.77 105.717 74.0967 105.87 74.39C106.03 74.6833 106.24 74.9167 106.5 75.09C106.76 75.2567 107.05 75.34 107.37 75.34C107.69 75.34 107.98 75.2533 108.24 75.08C108.507 74.9067 108.717 74.6733 108.87 74.38C109.03 74.08 109.11 73.75 109.11 73.39C109.11 73.03 109.03 72.7033 108.87 72.41C108.717 72.1167 108.507 71.8833 108.24 71.71C107.98 71.5367 107.69 71.45 107.37 71.45C107.05 71.45 106.76 71.54 106.5 71.72C106.24 71.8933 106.03 72.1267 105.87 72.42C105.717 72.7133 105.64 73.0433 105.64 73.41ZM113.956 76.06C113.483 76.06 113.063 75.9367 112.696 75.69C112.336 75.4367 112.053 75.1067 111.846 74.7C111.646 74.2933 111.546 73.86 111.546 73.4C111.546 72.9067 111.646 72.4567 111.846 72.05C112.053 71.6367 112.34 71.3067 112.706 71.06C113.073 70.8133 113.493 70.69 113.966 70.69C114.4 70.69 114.776 70.7967 115.096 71.01C115.423 71.2233 115.696 71.4933 115.916 71.82V70.78H116.696V75.94C116.696 76.4333 116.576 76.85 116.336 77.19C116.103 77.53 115.783 77.7867 115.376 77.96C114.976 78.14 114.53 78.23 114.036 78.23C113.45 78.23 112.97 78.1267 112.596 77.92C112.223 77.7133 111.913 77.4333 111.666 77.08L112.176 76.63C112.383 76.9367 112.65 77.1667 112.976 77.32C113.31 77.4733 113.663 77.55 114.036 77.55C114.356 77.55 114.65 77.49 114.916 77.37C115.19 77.2567 115.406 77.08 115.566 76.84C115.733 76.6 115.816 76.3 115.816 75.94V75.02C115.623 75.34 115.356 75.5933 115.016 75.78C114.683 75.9667 114.33 76.06 113.956 76.06ZM114.226 75.34C114.473 75.34 114.71 75.2833 114.936 75.17C115.163 75.0567 115.353 74.91 115.506 74.73C115.666 74.55 115.77 74.3633 115.816 74.17V72.67C115.676 72.3167 115.45 72.0267 115.136 71.8C114.823 71.5667 114.493 71.45 114.146 71.45C113.793 71.45 113.486 71.5467 113.226 71.74C112.973 71.9333 112.776 72.18 112.636 72.48C112.503 72.78 112.436 73.0933 112.436 73.42C112.436 73.7667 112.516 74.0867 112.676 74.38C112.836 74.6667 113.05 74.9 113.316 75.08C113.59 75.2533 113.893 75.34 114.226 75.34ZM121.677 71.55C121.237 71.5567 120.847 71.67 120.507 71.89C120.173 72.1033 119.937 72.4 119.797 72.78V76H118.917V70.78H119.737V71.99C119.917 71.63 120.153 71.34 120.447 71.12C120.747 70.8933 121.06 70.7667 121.387 70.74C121.453 70.74 121.51 70.74 121.557 70.74C121.603 70.74 121.643 70.7433 121.677 70.75V71.55ZM122.939 74.49C122.939 74.1567 123.033 73.87 123.219 73.63C123.413 73.3833 123.676 73.1933 124.009 73.06C124.343 72.9267 124.729 72.86 125.169 72.86C125.403 72.86 125.649 72.88 125.909 72.92C126.169 72.9533 126.399 73.0067 126.599 73.08V72.7C126.599 72.3 126.479 71.9867 126.239 71.76C125.999 71.5267 125.659 71.41 125.219 71.41C124.933 71.41 124.656 71.4633 124.389 71.57C124.129 71.67 123.853 71.8167 123.559 72.01L123.239 71.39C123.579 71.1567 123.919 70.9833 124.259 70.87C124.599 70.75 124.953 70.69 125.319 70.69C125.986 70.69 126.513 70.8767 126.899 71.25C127.286 71.6167 127.479 72.13 127.479 72.79V75C127.479 75.2067 127.573 75.3133 127.759 75.32V76C127.673 76.0133 127.596 76.0233 127.529 76.03C127.469 76.0367 127.419 76.04 127.379 76.04C127.173 76.04 127.016 75.9833 126.909 75.87C126.809 75.7567 126.753 75.6367 126.739 75.51L126.719 75.18C126.493 75.4733 126.196 75.7 125.829 75.86C125.463 76.02 125.099 76.1 124.739 76.1C124.393 76.1 124.083 76.03 123.809 75.89C123.536 75.7433 123.323 75.55 123.169 75.31C123.016 75.0633 122.939 74.79 122.939 74.49ZM126.339 74.86C126.419 74.7667 126.483 74.6733 126.529 74.58C126.576 74.48 126.599 74.3967 126.599 74.33V73.68C126.173 73.5133 125.733 73.43 125.279 73.43C124.833 73.43 124.469 73.52 124.189 73.7C123.916 73.8733 123.779 74.1133 123.779 74.42C123.779 74.5867 123.823 74.75 123.909 74.91C124.003 75.0633 124.136 75.19 124.309 75.29C124.489 75.39 124.709 75.44 124.969 75.44C125.243 75.44 125.503 75.3867 125.749 75.28C125.996 75.1667 126.193 75.0267 126.339 74.86ZM137.557 76H136.677V73.08C136.677 72.5333 136.587 72.13 136.407 71.87C136.233 71.61 135.973 71.48 135.627 71.48C135.273 71.48 134.953 71.61 134.667 71.87C134.38 72.1233 134.177 72.4533 134.057 72.86V76H133.177V73.08C133.177 72.5267 133.09 72.1233 132.917 71.87C132.743 71.61 132.483 71.48 132.137 71.48C131.79 71.48 131.47 71.6067 131.177 71.86C130.89 72.1067 130.687 72.4367 130.567 72.85V76H129.687V70.78H130.487V71.9C130.7 71.5133 130.977 71.2167 131.317 71.01C131.657 70.7967 132.04 70.69 132.467 70.69C132.9 70.69 133.247 70.81 133.507 71.05C133.767 71.2833 133.927 71.5867 133.987 71.96C134.453 71.1133 135.117 70.69 135.977 70.69C136.377 70.69 136.69 70.7867 136.917 70.98C137.15 71.1667 137.313 71.4267 137.407 71.76C137.507 72.0867 137.557 72.46 137.557 72.88V76ZM147.595 76H146.715V73.08C146.715 72.5333 146.625 72.13 146.445 71.87C146.272 71.61 146.012 71.48 145.665 71.48C145.312 71.48 144.992 71.61 144.705 71.87C144.418 72.1233 144.215 72.4533 144.095 72.86V76H143.215V73.08C143.215 72.5267 143.128 72.1233 142.955 71.87C142.782 71.61 142.522 71.48 142.175 71.48C141.828 71.48 141.508 71.6067 141.215 71.86C140.928 72.1067 140.725 72.4367 140.605 72.85V76H139.725V70.78H140.525V71.9C140.738 71.5133 141.015 71.2167 141.355 71.01C141.695 70.7967 142.078 70.69 142.505 70.69C142.938 70.69 143.285 70.81 143.545 71.05C143.805 71.2833 143.965 71.5867 144.025 71.96C144.492 71.1133 145.155 70.69 146.015 70.69C146.415 70.69 146.728 70.7867 146.955 70.98C147.188 71.1667 147.352 71.4267 147.445 71.76C147.545 72.0867 147.595 72.46 147.595 72.88V76ZM149.763 69.8V68.7H150.643V69.8H149.763ZM149.763 76V70.78H150.643V76H149.763ZM157.398 76H156.518V73.08C156.518 72.5267 156.431 72.1233 156.258 71.87C156.091 71.61 155.834 71.48 155.488 71.48C155.248 71.48 155.008 71.54 154.768 71.66C154.534 71.78 154.324 71.9433 154.138 72.15C153.958 72.35 153.828 72.5833 153.748 72.85V76H152.868V70.78H153.668V71.9C153.874 71.5333 154.171 71.24 154.558 71.02C154.951 70.8 155.378 70.69 155.838 70.69C156.244 70.69 156.558 70.7867 156.778 70.98C157.004 71.1667 157.164 71.4267 157.258 71.76C157.351 72.0867 157.398 72.46 157.398 72.88V76ZM161.646 76.06C161.173 76.06 160.753 75.9367 160.386 75.69C160.026 75.4367 159.743 75.1067 159.536 74.7C159.336 74.2933 159.236 73.86 159.236 73.4C159.236 72.9067 159.336 72.4567 159.536 72.05C159.743 71.6367 160.03 71.3067 160.396 71.06C160.763 70.8133 161.183 70.69 161.656 70.69C162.09 70.69 162.466 70.7967 162.786 71.01C163.113 71.2233 163.386 71.4933 163.606 71.82V70.78H164.386V75.94C164.386 76.4333 164.266 76.85 164.026 77.19C163.793 77.53 163.473 77.7867 163.066 77.96C162.666 78.14 162.22 78.23 161.726 78.23C161.14 78.23 160.66 78.1267 160.286 77.92C159.913 77.7133 159.603 77.4333 159.356 77.08L159.866 76.63C160.073 76.9367 160.34 77.1667 160.666 77.32C161 77.4733 161.353 77.55 161.726 77.55C162.046 77.55 162.34 77.49 162.606 77.37C162.88 77.2567 163.096 77.08 163.256 76.84C163.423 76.6 163.506 76.3 163.506 75.94V75.02C163.313 75.34 163.046 75.5933 162.706 75.78C162.373 75.9667 162.02 76.06 161.646 76.06ZM161.916 75.34C162.163 75.34 162.4 75.2833 162.626 75.17C162.853 75.0567 163.043 74.91 163.196 74.73C163.356 74.55 163.46 74.3633 163.506 74.17V72.67C163.366 72.3167 163.14 72.0267 162.826 71.8C162.513 71.5667 162.183 71.45 161.836 71.45C161.483 71.45 161.176 71.5467 160.916 71.74C160.663 71.9333 160.466 72.18 160.326 72.48C160.193 72.78 160.126 73.0933 160.126 73.42C160.126 73.7667 160.206 74.0867 160.366 74.38C160.526 74.6667 160.74 74.9 161.006 75.08C161.28 75.2533 161.583 75.34 161.916 75.34Z" fill="white"/>
<path d="M16.6632 9.72L33.9352 52.084L51.1392 9.72H56.1032L36.1112 58H31.7592L11.6992 9.72H16.6632ZM50.592 47.8C50.592 45.624 51.2267 43.7427 52.496 42.156C53.7654 40.524 55.5107 39.2547 57.732 38.348C59.9987 37.4413 62.6054 36.988 65.552 36.988C67.2747 36.988 69.0654 37.1467 70.924 37.464C72.7827 37.736 74.4374 38.1213 75.888 38.62V35.628C75.888 32.636 75.004 30.256 73.236 28.488C71.468 26.72 69.02 25.836 65.892 25.836C64.0334 25.836 62.1747 26.1987 60.316 26.924C58.4574 27.604 56.5307 28.624 54.536 29.984L52.768 26.72C55.08 25.1333 57.3467 23.9547 59.568 23.184C61.7894 22.368 64.056 21.96 66.368 21.96C70.72 21.96 74.1654 23.2067 76.704 25.7C79.2427 28.1933 80.512 31.6387 80.512 36.036V52.424C80.512 53.648 81.0787 54.2827 82.212 54.328V58C81.2147 58.136 80.512 58.1813 80.104 58.136C78.9707 58.0907 78.1094 57.728 77.52 57.048C76.9307 56.368 76.6134 55.6427 76.568 54.872L76.5 52.288C74.9134 54.328 72.8507 55.9147 70.312 57.048C67.7734 58.136 65.1894 58.68 62.56 58.68C60.248 58.68 58.1854 58.204 56.372 57.252C54.5587 56.2547 53.1307 54.94 52.088 53.308C51.0907 51.6307 50.592 49.7947 50.592 47.8ZM74.324 50.52C75.3667 49.296 75.888 48.1627 75.888 47.12V41.952C72.76 40.728 69.496 40.116 66.096 40.116C62.7867 40.116 60.112 40.7733 58.072 42.088C56.032 43.4027 55.012 45.1933 55.012 47.46C55.012 49.4093 55.76 51.1773 57.256 52.764C58.7974 54.3507 60.928 55.144 63.648 55.144C65.8694 55.144 67.932 54.7133 69.836 53.852C71.7854 52.9907 73.2814 51.88 74.324 50.52ZM85.6067 8.36H90.2307V49.976C90.2307 51.744 90.5254 52.9 91.1147 53.444C91.7494 53.988 92.5427 54.26 93.4947 54.26C94.3107 54.26 95.1267 54.1693 95.9427 53.988C96.8041 53.8067 97.5067 53.6253 98.0507 53.444L98.8667 57.184C98.0054 57.5467 96.9401 57.8413 95.6707 58.068C94.4467 58.2947 93.3814 58.408 92.4747 58.408C90.3894 58.408 88.7121 57.796 87.4427 56.572C86.2187 55.348 85.6067 53.6707 85.6067 51.54V8.36ZM114.13 58.68C110.73 58.68 107.693 57.8413 105.018 56.164C102.343 54.4867 100.235 52.2427 98.6941 49.432C97.1527 46.6213 96.3821 43.5387 96.3821 40.184C96.3821 36.8747 97.1301 33.8373 98.6261 31.072C100.167 28.3067 102.275 26.108 104.95 24.476C107.625 22.7987 110.662 21.96 114.062 21.96C117.553 21.96 120.613 22.7987 123.242 24.476C125.871 26.1533 127.911 28.3747 129.362 31.14C130.858 33.86 131.606 36.852 131.606 40.116C131.606 40.8413 131.583 41.4533 131.538 41.952H101.21C101.437 44.4907 102.162 46.7573 103.386 48.752C104.61 50.7013 106.174 52.2653 108.078 53.444C109.982 54.5773 112.067 55.144 114.334 55.144C116.646 55.144 118.822 54.5547 120.862 53.376C122.902 52.1973 124.353 50.656 125.214 48.752L129.226 49.84C128.501 51.5627 127.367 53.104 125.826 54.464C124.33 55.7787 122.585 56.8213 120.59 57.592C118.595 58.3173 116.442 58.68 114.13 58.68ZM101.074 38.62H127.254C127.073 36.0813 126.37 33.8373 125.146 31.888C123.922 29.8933 122.358 28.352 120.454 27.264C118.55 26.1307 116.442 25.564 114.13 25.564C111.818 25.564 109.71 26.1307 107.806 27.264C105.902 28.352 104.338 29.8933 103.114 31.888C101.935 33.8373 101.255 36.0813 101.074 38.62ZM163.424 58H158.8V38.212C158.8 34.0413 158.166 31.004 156.896 29.1C155.672 27.1507 153.768 26.176 151.184 26.176C149.371 26.176 147.58 26.6293 145.812 27.536C144.044 28.3973 142.48 29.5987 141.12 31.14C139.806 32.636 138.854 34.3587 138.264 36.308V58H133.64V22.572H137.856V30.596C139.262 28.012 141.324 25.9267 144.044 24.34C146.764 22.7533 149.711 21.96 152.884 21.96C155.514 21.96 157.599 22.5947 159.14 23.864C160.682 25.088 161.77 26.856 162.404 29.168C163.084 31.4347 163.424 34.132 163.424 37.26V58Z" fill="white"/>
</svg>

