<svg width="171" height="71" viewBox="0 0 171 71" fill="none" xmlns="http://www.w3.org/2000/svg">
<path d="M46.056 0.399998V10.384H28.488V70H18.024V10.384H0.84V0.399998H46.056ZM47.6903 14.512C47.6903 12.976 48.2343 11.696 49.3223 10.672C50.4743 9.648 51.6903 9.136 52.9703 9.136C54.2503 9.136 55.4343 9.648 56.5223 10.672C57.6103 11.696 58.1543 12.976 58.1543 14.512C58.1543 16.048 57.6103 17.328 56.5223 18.352C55.4343 19.312 54.2503 19.792 52.9703 19.792C51.6903 19.792 50.4743 19.312 49.3223 18.352C48.2343 17.328 47.6903 16.048 47.6903 14.512ZM56.9063 70H48.7463V29.872H56.9063V70ZM66.5138 29.872H73.7138C73.8418 31.856 73.9378 33.68 74.0018 35.344C74.1298 36.944 74.2578 38.544 74.3858 40.144C75.8578 36.688 77.9378 33.936 80.6258 31.888C83.3778 29.84 86.7378 28.816 90.7058 28.816C94.7378 28.816 97.9698 29.936 100.402 32.176C102.834 34.416 104.114 37.296 104.242 40.816V70H95.9858V44.56C95.8578 42.512 95.1538 40.784 93.8738 39.376C92.5938 37.904 90.5778 37.104 87.8258 36.976C85.9058 36.976 84.1458 37.328 82.5458 38.032C80.9458 38.672 79.5698 39.568 78.4178 40.72C77.2658 41.872 76.3378 43.248 75.6337 44.848C74.9938 46.448 74.6738 48.208 74.6738 50.128V70H66.5138V29.872ZM110.653 49.84C110.653 46.96 111.197 44.24 112.285 41.68C113.437 39.12 114.973 36.912 116.893 35.056C118.813 33.136 121.053 31.632 123.613 30.544C126.237 29.392 129.053 28.816 132.061 28.816C135.069 28.816 137.854 29.392 140.413 30.544C143.038 31.632 145.278 33.136 147.133 35.056C149.053 36.912 150.525 39.12 151.549 41.68C152.638 44.24 153.182 46.96 153.182 49.84C153.182 52.72 152.638 55.44 151.549 58C150.525 60.56 149.053 62.8 147.133 64.72C145.278 66.64 143.038 68.176 140.413 69.328C137.854 70.416 135.038 70.96 131.965 70.96C129.021 70.96 126.237 70.448 123.613 69.424C121.053 68.4 118.813 66.96 116.893 65.104C114.973 63.248 113.437 61.04 112.285 58.48C111.197 55.856 110.653 52.976 110.653 49.84ZM118.813 49.936C118.813 51.728 119.133 53.424 119.773 55.024C120.477 56.56 121.405 57.936 122.557 59.152C123.773 60.304 125.149 61.232 126.685 61.936C128.285 62.576 129.981 62.896 131.773 62.896C133.565 62.896 135.261 62.576 136.861 61.936C138.462 61.232 139.837 60.304 140.989 59.152C142.205 57.936 143.165 56.56 143.869 55.024C144.573 53.424 144.925 51.728 144.925 49.936C144.925 48.144 144.573 46.448 143.869 44.848C143.165 43.248 142.205 41.872 140.989 40.72C139.837 39.504 138.462 38.576 136.861 37.936C135.261 37.232 133.565 36.88 131.773 36.88C129.981 36.88 128.285 37.232 126.685 37.936C125.149 38.576 123.773 39.504 122.557 40.72C121.405 41.872 120.477 43.248 119.773 44.848C119.133 46.448 118.813 48.144 118.813 49.936ZM159.41 64.624C159.41 63.088 159.954 61.808 161.042 60.784C162.194 59.696 163.474 59.152 164.882 59.152C166.162 59.152 167.346 59.696 168.434 60.784C169.586 61.808 170.162 63.088 170.162 64.624C170.162 66.288 169.586 67.6 168.434 68.56C167.346 69.52 166.162 70 164.882 70C163.474 70 162.194 69.52 161.042 68.56C159.954 67.6 159.41 66.288 159.41 64.624Z" fill="white"/>
</svg>
