<svg width="100" height="100" viewBox="0 0 100 100" fill="none" xmlns="http://www.w3.org/2000/svg">
<g clip-path="url(#clip0)">
<path d="M96.2583 44.1276L49.9733 90.4169L3.68829 44.1276C2.82481 43.2935 1.44858 43.3175 0.614444 44.181C-0.199108 45.0235 -0.199108 46.359 0.614444 47.2013L48.4385 95.0253C49.2873 95.8739 50.6634 95.8739 51.5124 95.0253L99.3365 47.2013C100.171 46.3378 100.147 44.9615 99.2831 44.1274C98.4406 43.3137 97.1051 43.3137 96.2626 44.1274L96.2583 44.1276Z" fill="#607D8B"/>
<path d="M96.2583 4.99888L49.9733 51.2882L3.68829 4.99888C2.82481 4.16475 1.44858 4.1888 0.614444 5.05228C-0.199108 5.89477 -0.199108 7.23024 0.614444 8.07273L48.4385 55.8968C49.2873 56.7454 50.6634 56.7454 51.5124 55.8968L99.3365 8.07273C100.2 7.2386 100.224 5.86257 99.3898 4.99888C98.5557 4.1354 97.1797 4.11156 96.316 4.94549C96.2979 4.96302 96.2801 4.98075 96.2626 4.99888H96.2583Z" fill="#607D8B"/>
<path d="M49.973 95.6647C49.3961 95.6657 48.8423 95.4374 48.4339 95.0298L0.609866 47.2058C-0.224269 46.3423 -0.200221 44.966 0.663261 44.1319C1.50575 43.3184 2.84122 43.3184 3.68351 44.1319L49.9728 90.4169L96.2578 44.1276C97.1213 43.2935 98.4975 43.3175 99.3316 44.181C100.145 45.0235 100.145 46.359 99.3316 47.2015L51.5078 95.0256C51.101 95.4333 50.5491 95.6632 49.973 95.6647Z" fill="white"/>
<path d="M49.973 56.5359C49.3961 56.5369 48.8424 56.3087 48.434 55.9011L0.609866 8.07701C-0.224269 7.21353 -0.200221 5.8373 0.663261 5.00316C1.50575 4.18961 2.84122 4.18961 3.68372 5.00316L49.973 51.2882L96.2581 4.99888C97.0922 4.1354 98.4682 4.11156 99.3319 4.94549C100.196 5.77942 100.219 7.15565 99.3853 8.01934C99.3678 8.03747 99.35 8.0552 99.3319 8.07273L51.5078 55.8968C51.101 56.3046 50.5492 56.5345 49.973 56.5359Z" fill="white"/>
</g>
<defs>
<clipPath id="clip0">
<rect width="100" height="100" fill="white"/>
</clipPath>
</defs>
</svg>
