<svg width="100" height="100" viewBox="0 0 100 100" fill="none" xmlns="http://www.w3.org/2000/svg">
<g clip-path="url(#clip0)">
<path d="M99.3931 0.608786C98.9597 0.178513 98.3401 -0.0228545 97.7755 0.00292672C78.9034 0.768942 56.778 11.0564 38.4278 29.3748C28.1403 30.0127 17.1387 34.9336 8.27312 43.799C5.12996 46.9406 2.48699 50.3512 0.350854 53.9033C0.332495 53.9279 0.250073 54.065 0.250073 54.065C-0.177271 54.8555 -0.0581301 55.8627 0.610229 56.5277C0.829956 56.7535 1.08933 56.9125 1.36707 57.0102C1.36707 57.0102 1.58367 57.0834 1.68132 57.1016L16.0278 61.0996C14.9903 63.3641 14.0563 65.6285 13.2386 67.8807C12.9884 68.6131 13.1499 69.4523 13.7329 70.0352L15.4663 71.7686C14.1569 72.3332 12.921 73.1541 11.8376 74.2375C7.553 78.5219 0.430151 100 0.430151 100C0.430151 100 21.9085 92.8773 26.1932 88.5928C27.2766 87.5094 28.0975 86.2734 28.6651 84.9643L29.9653 86.2676C30.5481 86.8502 31.3903 87.0152 32.1198 86.7617C34.372 85.9439 36.6364 85.0131 38.9038 83.9725L42.8985 98.3189C42.9198 98.4166 42.9901 98.6332 42.9901 98.6332C43.0909 98.9107 43.2497 99.1672 43.4721 99.39C44.1376 100.058 45.1444 100.177 45.9348 99.7502C45.9348 99.7502 46.0723 99.6678 46.0999 99.6494C49.6491 97.5131 53.0608 94.8703 56.2011 91.7271C65.0665 82.8617 69.9889 71.86 70.6268 61.5725C88.9438 43.2205 99.2313 21.0967 99.9972 2.22461C100.025 1.66152 99.8231 1.04062 99.3931 0.608786ZM5.35867 53.7996C7.0616 51.3033 9.02078 48.9426 11.218 46.7453C14.929 43.0359 19.0915 40.0102 23.5899 37.7562C26.9682 36.0627 30.4227 34.8602 33.8866 34.1658C27.3009 41.516 21.9298 49.3744 17.877 57.2846L5.35867 53.7996ZM23.2483 85.6479C22.9036 85.9896 20.6604 87.9123 10.2173 92.0107C9.22546 92.4014 8.24285 92.7769 7.30281 93.1307C7.65066 92.1969 8.02312 91.2295 8.4075 90.2469C12.5153 79.7762 14.4409 77.5301 14.7856 77.182C15.9147 76.0559 17.3157 75.3326 18.7958 75.0977L25.3327 81.6377C25.1038 83.066 24.405 84.4883 23.2483 85.6479ZM62.2468 76.4102C59.9915 80.9084 56.9675 85.0711 53.2563 88.7789C51.0591 90.9764 48.697 92.9387 46.2007 94.6383L42.7155 82.123C50.6257 78.0703 58.4841 72.6994 65.8356 66.1135C65.1399 69.5771 63.9407 73.0318 62.2468 76.4102ZM79.8157 44.2687C76.2302 49.3316 72.1161 54.19 67.5997 58.7098C63.0798 63.2293 58.2184 67.3402 53.1587 70.926C48.2606 74.3988 43.1673 77.3834 38.022 79.8006C36.0016 80.7527 33.9813 81.6072 31.9612 82.3734L17.627 68.0391C18.393 66.0187 19.2505 63.9984 20.1995 61.9783C22.6165 56.833 25.6012 51.7396 29.0741 46.843C32.6598 41.7803 36.7706 36.9219 41.2903 32.4021C45.81 27.884 50.6684 23.7717 55.7313 20.1842C60.562 16.7586 65.5852 13.8076 70.6636 11.4072L88.5927 29.3379C86.194 34.4145 83.2429 39.4361 79.8157 44.2687ZM90.4024 25.2533L74.747 9.59922C81.8942 6.65429 89.0108 4.85683 95.6944 4.30586C95.145 10.9908 93.3474 18.1061 90.4024 25.2533Z" fill="#939393"/>
<path d="M61.951 29.7159C59.7234 29.7159 57.6328 30.5841 56.0582 32.1573C54.4836 33.732 53.6168 35.824 53.6168 38.0503C53.6168 40.2765 54.4836 42.3685 56.0582 43.9433C57.6328 45.5163 59.7234 46.3831 61.951 46.3831C64.1758 46.3831 66.2691 45.5163 67.8441 43.9433C71.0912 40.6931 71.0912 35.406 67.8441 32.1573C66.2693 30.5841 64.1758 29.7159 61.951 29.7159ZM64.8963 40.9966C64.1088 41.7841 63.0621 42.2173 61.9512 42.2173C60.8373 42.2173 59.7906 41.7839 59.0031 40.9966C58.216 40.2093 57.7826 39.1624 57.7826 38.0503C57.7826 36.9378 58.2158 35.8911 59.0031 35.1036C59.7906 34.3163 60.8373 33.8829 61.9512 33.8829C63.0621 33.8829 64.1088 34.3163 64.8963 35.1036C66.5197 36.7288 66.5197 39.3716 64.8963 40.9966Z" fill="#939393"/>
<path d="M44.2723 47.3947C42.0445 47.3947 39.9541 48.2615 38.3793 49.8361C36.8045 51.4093 35.9379 53.5029 35.9379 55.7277C35.9379 57.9554 36.8047 60.049 38.3793 61.6206C39.9539 63.1952 42.0445 64.062 44.2723 64.062C46.4971 64.062 48.5904 63.1952 50.1652 61.6206C51.74 60.049 52.6067 57.9554 52.6067 55.7277C52.6067 53.5029 51.74 51.4093 50.1652 49.8361C48.5904 48.2615 46.4969 47.3947 44.2723 47.3947ZM47.2172 58.6755C46.4328 59.463 45.3861 59.8964 44.2721 59.8964C43.158 59.8964 42.1115 59.463 41.324 58.6755C40.5397 57.8884 40.1065 56.8413 40.1065 55.7277C40.1065 54.6167 40.5398 53.5669 41.324 52.7796C42.1113 51.995 43.158 51.562 44.2721 51.562C45.3861 51.562 46.4326 51.9952 47.2172 52.7825C48.0045 53.5669 48.4379 54.6167 48.4379 55.7277C48.4379 56.8413 48.0045 57.8884 47.2172 58.6755Z" fill="#939393"/>
</g>
<defs>
<clipPath id="clip0">
<rect width="100" height="100" fill="white"/>
</clipPath>
</defs>
</svg>
