<svg width="100" height="100" viewBox="0 0 100 100" fill="none" xmlns="http://www.w3.org/2000/svg">
<g clip-path="url(#clip0)">
<path d="M85.3562 30.2303C75.9125 20.7681 63.3559 15.557 50.0005 15.557C36.6451 15.557 24.0885 20.7681 14.6448 30.2303C5.20101 39.6932 0 52.2735 0 65.6549C0 69.3364 0.400547 73.0095 1.19096 76.5725C1.6472 78.6273 2.24001 80.6729 2.95261 82.6528C3.38672 83.8598 4.52275 84.6112 5.73355 84.6112C6.06695 84.6112 6.40494 84.5539 6.73682 84.4347C8.27263 83.8789 9.06839 82.1819 8.51449 80.6431C7.88658 78.8986 7.36473 77.0969 6.96342 75.2867C6.47895 73.1012 6.16385 70.8683 6.01507 68.617H15.1048C16.7375 68.617 18.0612 67.2907 18.0612 65.6549C18.0612 64.019 16.7375 62.6927 15.1048 62.6927H6.01431C6.4057 56.8027 7.95372 51.2254 10.4333 46.1863L18.3016 50.7385C18.767 51.0076 19.2751 51.136 19.7771 51.136C20.7987 51.136 21.7928 50.6047 22.3399 49.6545C23.1562 48.2373 22.6717 46.4256 21.258 45.6076L13.3966 41.06C16.5964 36.2945 20.6972 32.1857 25.4527 28.9797L29.9922 36.8564C30.5392 37.8073 31.5334 38.3386 32.555 38.3386C33.0562 38.3386 33.5651 38.2102 34.0305 37.9411C35.445 37.1232 35.9295 35.3115 35.1123 33.8942L30.5698 26.0106C35.5991 23.5262 41.1648 21.9752 47.0433 21.5838V30.6912C47.0433 32.3271 48.367 33.6534 49.9997 33.6534C51.6324 33.6534 52.9569 32.3271 52.9569 30.6912V21.5838C58.8347 21.9759 64.4011 23.5262 69.4305 26.0106L64.8871 33.895C64.0708 35.3115 64.5552 37.1232 65.9697 37.9411C66.4351 38.2102 66.9433 38.3386 67.4453 38.3386C68.4669 38.3386 69.4602 37.8073 70.008 36.8572L74.5468 28.9797C79.303 32.1857 83.4038 36.2945 86.6036 41.06L78.7422 45.6076C77.3277 46.4256 76.8433 48.2373 77.6596 49.6545C78.2074 50.6047 79.2015 51.136 80.2231 51.136C80.7244 51.136 81.2333 51.0083 81.6987 50.7385L89.5669 46.187C92.0465 51.2254 93.5945 56.8027 93.9859 62.6927H84.8954C83.2619 62.6927 81.9382 64.019 81.9382 65.6549C81.9382 67.2907 83.2619 68.617 84.8954 68.617H93.9852C93.844 70.7483 93.5549 72.8642 93.1131 74.9358C92.7477 76.6466 92.2754 78.3528 91.7085 80.0063C91.1783 81.5543 92.0007 83.2391 93.5449 83.7704C95.0891 84.3009 96.7714 83.4776 97.3017 81.9304C97.9448 80.0529 98.4812 78.1166 98.8955 76.175C99.6287 72.7381 100 69.1988 100 65.6549C100.001 52.2735 94.8 39.6932 85.3562 30.2303Z" fill="#737373"/>
<path d="M66.5877 44.8103L53.9816 58.4202C52.7723 57.7299 51.3746 57.3332 49.8861 57.3332C45.3061 57.3332 41.5806 61.0667 41.5806 65.6548C41.5806 70.2437 45.3061 73.9764 49.8861 73.9764C54.4653 73.9764 58.1915 70.2437 58.1915 65.6548C58.1915 64.7421 58.0412 63.8638 57.7688 63.0412L70.922 48.8404C72.0329 47.641 71.9627 45.7666 70.7656 44.6536C69.5686 43.5405 67.6986 43.6109 66.5877 44.8103ZM49.8861 68.0521C48.5669 68.0521 47.4935 66.9765 47.4935 65.6548C47.4935 64.3331 48.5669 63.2583 49.8861 63.2583C51.2052 63.2583 52.2787 64.3331 52.2787 65.6548C52.2787 66.9765 51.2052 68.0521 49.8861 68.0521Z" fill="#737373"/>
</g>
<defs>
<clipPath id="clip0">
<rect width="100" height="100" fill="white"/>
</clipPath>
</defs>
</svg>
