<svg width="100" height="100" viewBox="0 0 100 100" fill="none" xmlns="http://www.w3.org/2000/svg">
<path d="M50 18.0273C35.5078 18.0273 25.039 28.8281 23.3789 40.4297C22.3437 48.1641 24.8437 55.7031 30.039 61.4062C34.6093 66.2891 37.1093 72.8125 37.1093 79.5313L37.0898 90.1172C37.0898 94.3945 40.625 97.8516 45 97.8516H55.1953C59.5703 97.8516 63.1054 94.3945 63.1054 90.1172L63.125 79.5313C63.125 72.6172 65.4101 66.2891 69.7851 61.8164C74.5703 56.9336 77.0703 50.625 77.0703 44.1016C77.0508 29.6289 64.7656 18.0273 50 18.0273ZM59.1406 90.1172C59.1406 92.1484 57.4804 93.7891 55.3906 93.7891H45.1953C43.1054 93.7891 41.4453 92.168 41.4453 90.1172V85.4297H59.1211V90.1172H59.1406ZM66.875 58.9648C61.6797 64.2578 58.9648 71.582 58.9648 79.5313V81.3672H41.289V79.5313C41.289 71.9922 38.164 64.4727 32.9687 58.7695C28.3984 53.8867 26.5234 47.5781 27.3437 41.0547C28.8086 31.2891 37.8906 22.1094 50.0195 22.1094C62.7148 22.1094 72.9101 32.0898 72.9101 44.1016C72.9101 49.5898 70.8203 54.8828 66.875 58.9648Z" fill="#8D8D8D"/>
<path d="M52.0703 2.14844H47.9102V11.9141H52.0703V2.14844Z" fill="#8D8D8D"/>
<path d="M75.2149 20.9766L78.125 23.8867L85.2539 17.0312L82.3242 14.1211L75.2149 20.9766Z" fill="#8D8D8D"/>
<path d="M97.8515 46.1328H87.6562V50.2148H97.8515V46.1328Z" fill="#8D8D8D"/>
<path d="M12.3438 46.1328H2.14844V50.2148H12.3438V46.1328Z" fill="#8D8D8D"/>
<path d="M17.5977 14.1016L14.668 17.0117L21.7969 23.8672L24.7071 20.957L17.5977 14.1016Z" fill="#8D8D8D"/>
</svg>
