<svg width="30" height="32" viewBox="0 0 30 32" fill="none" xmlns="http://www.w3.org/2000/svg">
<path d="M29.4307 9.98148L15.7198 0.231447C15.2518 -0.0757412 14.7524 -0.0785537 14.2801 0.231447L0.569179 9.98148C0.217617 10.2314 0 10.6779 0 11.1243V20.8743C0 21.3207 0.217617 21.7671 0.569237 22.0171L14.2801 31.7686C14.7481 32.0757 15.2476 32.0786 15.7199 31.7686L29.4308 22.0171C29.7823 21.7672 30 21.3207 30 20.8743V11.1243C29.9999 10.6779 29.7823 10.2314 29.4307 9.98148ZM16.289 3.94565L26.3839 11.1243L21.8806 14.3386L16.289 10.3564V3.94565ZM13.7109 3.94565V10.3564L8.11938 14.3386L3.61605 11.1243L13.7109 3.94565ZM2.57812 13.6957L5.80915 15.9993L2.57812 18.3029V13.6957ZM13.7109 28.053L3.61605 20.8743L8.11938 17.66L13.7109 21.6422V28.053ZM15 19.2493L10.4464 15.9993L15 12.7493L19.5536 15.9993L15 19.2493ZM16.289 28.053V21.6422L21.8806 17.66L26.3839 20.8743L16.289 28.053ZM27.4218 18.3029L24.1908 15.9993L27.4218 13.6957V18.3029Z" fill="white"/>
</svg>
