<svg width="46" height="50" viewBox="0 0 46 50" fill="none" xmlns="http://www.w3.org/2000/svg">
<path d="M1.64286 12.8906H44.3571C45.2645 12.8906 46 12.1911 46 11.3281V7.42188C46 6.55889 45.2645 5.85938 44.3571 5.85938H1.64286C0.735487 5.85938 0 6.55889 0 7.42188V11.3281C0 12.1911 0.735487 12.8906 1.64286 12.8906ZM1.64286 28.5156H44.3571C45.2645 28.5156 46 27.8161 46 26.9531V23.0469C46 22.1839 45.2645 21.4844 44.3571 21.4844H1.64286C0.735487 21.4844 0 22.1839 0 23.0469V26.9531C0 27.8161 0.735487 28.5156 1.64286 28.5156ZM1.64286 44.1406H44.3571C45.2645 44.1406 46 43.4411 46 42.5781V38.6719C46 37.8089 45.2645 37.1094 44.3571 37.1094H1.64286C0.735487 37.1094 0 37.8089 0 38.6719V42.5781C0 43.4411 0.735487 44.1406 1.64286 44.1406Z" fill="white"/>
</svg>
